# xmcd
#
# Track frame offsets:
#  150
#  12350
#  26220
#  38272
#  52576
#  61332
#  74666
#  84178
#  99608
#  111674
#
# Disc length: 1587 seconds
#
# Revision: 0
# Processed by: cddbd v1.5.1PL2 Copyright (c) Steve Scherf et al.
# Submitted via: AltoMP3_Maker 3.0
#
DISCID=7b06310a
DTITLE=The Kentucky Gamblers - Brown, Bailey, Riffe, and Lewis
DYEAR=1900
DGENRE=
TTITLE0=Sitting on Top of the World
TTITLE1=All I Ever Loved Was You 
TTITLE2=Blueridge Cabin Home
TTITLE3=Long Gone
TTITLE4=Dark Hollow
TTITLE5=Ole Kentucky Trail
TTITLE6=Teardrops in My Eyes
TTITLE7=Rollin in My Sweet Baby's Arms
TTITLE8=White Freightliner Blues
TTITLE9=House of Gold
EXTD=
EXTT0=
EXTT1=
EXTT2=
EXTT3=
EXTT4=
EXTT5=
EXTT6=
EXTT7=
EXTT8=
EXTT9=
PLAYORDER=
